<svg width="276" height="26" viewBox="0 0 276 26" fill="none" xmlns="http://www.w3.org/2000/svg">
<path d="M14.0742 7.83398C13.875 5.9248 12.3643 4.8125 9.92383 4.8125C7.40039 4.8125 5.98926 5.97461 5.97266 7.56836C5.95605 9.31152 7.74902 10.0918 9.82422 10.5566L11.9824 11.0879C16.0996 12.0342 19.1709 14.126 19.1875 18.127C19.1709 22.5264 15.751 25.3486 9.89062 25.332C4.08008 25.3486 0.37793 22.6592 0.228516 17.4961H5.07617C5.24219 19.9199 7.16797 21.1484 9.82422 21.1484C12.4473 21.1484 14.1406 19.9199 14.1406 18.127C14.1406 16.4834 12.6465 15.7197 10.0234 15.0723L7.40039 14.4414C3.34961 13.4453 0.859375 11.4199 0.859375 7.90039C0.842773 3.53418 4.69434 0.628906 9.95703 0.628906C15.2861 0.628906 18.7891 3.58398 18.8555 7.83398H14.0742ZM21.5117 5.07812V0.960938H41.2012V5.07812H33.8301V25H28.8828V5.07812H21.5117ZM45.3516 25H39.9727L48.3066 0.960938H54.7148L63.0156 25H57.6699L55.8604 19.4551H47.1611L45.3516 25ZM48.4229 15.5703H54.5986L51.5938 6.37305H51.4277L48.4229 15.5703ZM61.8203 0.960938H67.4316L72.9766 11.3203H73.209L78.7207 0.960938H84.332L75.5664 16.4336V25H70.5859V16.4336L61.8203 0.960938ZM99.7383 0.960938V25H94.7578V0.960938H99.7383ZM123.844 0.960938V25H119.527L108.969 9.72656H108.77V25H103.789V0.960938H108.172L118.664 16.2344H118.896V0.960938H123.844ZM126.965 5.07812V0.960938H146.654V5.07812H139.283V25H134.336V5.07812H126.965ZM149.742 25V0.960938H165.879V5.07812H154.723V10.9219H165.049V15.0391H154.723V20.8828H165.912V25H149.742ZM169.764 25V0.960938H179.193C184.655 0.960938 187.793 4.03223 187.793 8.79688C187.793 12.084 186.282 14.4746 183.543 15.6533L188.656 25H183.145L178.546 16.4668H174.744V25H169.764ZM174.744 12.416H178.264C181.219 12.416 182.663 11.2041 182.646 8.79688C182.663 6.37305 181.219 5.06152 178.264 5.04492H174.744V12.416ZM194.799 0.960938L200.643 19.2891H200.875L206.752 0.960938H212.264L203.963 25H197.555L189.221 0.960938H194.799ZM219.967 0.960938V25H214.986V0.960938H219.967ZM224.018 25V0.960938H240.154V5.07812H228.998V10.9219H239.324V15.0391H228.998V20.8828H240.188V25H224.018ZM249.418 25L242.545 0.960938H247.99L252.041 17.7617H252.24L256.656 0.960938H261.338L265.754 17.7949H265.953L270.004 0.960938H275.449L268.576 25H263.695L259.113 9.12891H258.914L254.299 25H249.418Z" fill="white"/>
</svg>
